<?xml version="1.0" encoding="UTF-8" ?>
<!DOCTYPE svg PUBLIC "-//W3C//DTD SVG 1.1//EN" "http://www.w3.org/Graphics/SVG/1.1/DTD/svg11.dtd">
<svg width="528pt" height="529pt" viewBox="0 0 528 529" version="1.1" xmlns="http://www.w3.org/2000/svg">
<g id="#15b400ff">
<path fill="#15b400" opacity="1.00" d=" M 0.00 0.00 L 0.26 0.00 C 0.19 0.07 0.06 0.20 0.00 0.26 L 0.00 0.00 Z" />
<path fill="#15b400" opacity="1.00" d=" M 526.90 0.00 L 528.00 0.00 L 528.00 198.60 C 525.89 199.60 523.77 200.64 521.53 201.33 C 518.63 201.64 514.65 199.82 512.95 203.23 C 511.06 209.02 515.59 214.27 517.58 219.42 C 519.51 221.90 518.04 224.78 517.22 227.37 C 514.75 234.81 519.20 242.51 516.66 249.98 C 517.06 254.59 510.98 255.31 510.59 259.54 C 509.98 262.67 508.01 265.29 507.29 268.38 C 506.98 269.58 505.82 270.28 505.00 271.12 C 504.45 264.07 504.71 257.00 504.71 249.93 C 504.93 245.84 501.94 242.65 501.02 238.84 C 500.46 235.59 500.70 232.27 500.69 229.00 C 501.03 219.43 499.61 209.63 502.71 200.37 C 481.79 200.20 460.86 200.47 439.93 200.23 C 437.85 200.20 435.81 200.63 433.81 201.16 C 435.35 203.02 437.15 204.64 438.73 206.47 C 439.91 210.17 439.19 214.17 439.32 218.00 C 439.05 223.87 439.95 229.84 438.84 235.65 C 436.08 238.85 431.27 239.95 427.17 240.22 C 423.82 239.46 424.84 235.56 424.59 233.04 C 424.94 220.62 424.07 208.17 425.24 195.80 C 424.71 193.00 422.23 190.93 421.69 188.08 C 419.52 177.60 416.18 167.39 413.99 156.92 C 413.47 150.57 413.41 143.99 410.37 138.20 C 407.74 138.99 406.96 141.83 406.36 144.19 C 405.11 149.15 405.55 154.33 404.63 159.34 C 403.92 163.31 401.33 166.81 401.40 170.95 C 401.16 174.19 401.90 177.85 399.63 180.56 C 396.82 183.77 397.64 188.28 395.95 191.97 C 395.34 193.62 394.29 195.33 395.04 197.12 C 396.55 201.77 397.36 207.10 394.63 211.49 C 391.69 216.67 385.13 217.00 380.26 219.34 C 378.47 223.13 380.05 227.68 378.88 231.69 C 377.63 233.47 375.42 234.42 373.29 233.83 C 372.88 231.24 372.53 228.64 372.59 226.01 C 372.79 210.66 372.56 195.31 372.74 179.95 C 372.93 175.09 371.29 170.33 368.53 166.36 C 365.88 162.60 363.75 158.52 361.42 154.56 C 353.96 153.96 346.47 154.57 339.00 154.36 C 334.61 154.44 330.14 153.85 325.82 154.81 C 324.39 156.66 324.18 159.14 323.39 161.29 C 321.78 167.32 317.16 172.44 317.32 178.94 C 317.32 184.97 317.33 191.00 317.37 197.03 C 317.35 201.96 318.85 206.87 318.12 211.79 C 314.02 216.98 308.35 220.94 305.13 226.84 C 303.95 228.85 303.32 231.41 301.14 232.63 C 300.59 232.17 299.50 231.25 298.95 230.79 C 298.68 227.85 298.68 224.89 298.70 221.94 C 298.85 216.86 296.40 212.12 296.59 207.03 C 296.77 194.34 296.58 181.65 296.74 168.96 C 297.02 161.07 292.97 153.87 292.69 146.05 C 292.50 142.37 292.95 138.69 292.69 135.02 C 292.49 131.89 290.90 129.11 289.51 126.38 C 286.47 120.73 283.97 114.79 280.58 109.33 C 277.81 104.91 276.08 99.90 272.85 95.76 C 268.90 101.60 267.46 108.68 263.78 114.67 C 260.94 119.20 259.71 124.47 257.20 129.17 C 253.34 135.08 256.56 142.38 255.00 148.87 C 253.24 156.11 252.21 163.53 252.30 170.99 C 252.42 182.33 252.23 193.67 252.43 205.01 C 252.58 208.87 251.60 212.62 250.85 216.37 C 249.90 221.40 250.26 226.94 247.35 231.40 C 242.62 233.70 236.87 231.01 232.03 233.18 C 228.81 234.55 225.70 236.17 222.55 237.70 C 221.85 242.73 222.74 247.85 221.93 252.87 L 221.02 253.32 C 220.26 239.56 221.01 225.76 220.73 211.98 C 220.53 210.53 220.74 208.60 219.13 207.90 C 214.72 205.33 209.23 207.31 204.64 205.49 C 203.24 203.36 202.29 200.98 201.21 198.69 C 197.37 198.10 193.30 198.96 189.65 197.40 C 185.78 195.80 181.53 195.38 177.40 195.17 C 174.97 196.32 172.93 198.53 170.03 198.32 C 164.69 198.99 158.09 197.88 153.87 201.82 C 152.57 208.11 153.65 214.62 153.34 221.00 C 153.03 227.36 154.32 233.95 152.35 240.13 C 148.92 241.34 145.69 243.00 142.48 244.69 C 140.39 245.90 138.08 244.48 136.02 243.94 C 135.07 227.51 136.41 211.00 135.42 194.58 C 131.93 194.30 128.43 194.43 124.94 194.31 C 121.21 194.22 117.75 192.53 114.05 192.27 C 111.41 192.51 109.05 193.87 106.53 194.61 C 102.74 195.87 98.63 194.82 94.81 195.84 C 92.47 198.12 93.60 202.07 92.90 205.05 C 88.59 205.59 84.26 205.30 79.93 205.29 C 75.37 205.11 71.52 207.88 67.66 209.91 C 67.38 211.92 67.12 213.93 67.18 215.97 C 67.40 227.65 67.15 239.33 67.34 251.00 C 67.32 253.58 67.45 256.20 66.91 258.74 C 66.09 260.23 64.29 260.57 62.92 261.34 C 59.04 258.11 56.08 253.98 52.72 250.26 C 50.52 247.83 49.07 244.71 46.49 242.64 C 42.04 241.90 37.49 242.48 33.00 242.32 C 29.54 242.40 26.00 241.91 22.60 242.71 C 17.06 248.99 8.74 251.96 3.51 258.55 C 2.51 259.86 1.18 261.19 1.26 262.98 C 1.12 267.94 1.90 273.05 0.00 277.80 L 0.00 41.61 C 9.99 41.39 20.00 41.42 29.99 41.01 C 44.09 40.05 58.27 40.86 72.35 39.62 C 84.23 39.30 96.12 39.29 108.00 38.90 C 119.02 39.37 129.96 37.33 140.98 37.50 C 149.61 36.81 158.30 37.38 166.91 36.44 C 166.34 37.37 165.77 38.29 165.20 39.22 C 166.66 40.50 168.25 41.76 170.22 42.09 C 174.28 42.50 178.98 44.01 182.16 40.54 C 186.07 43.85 190.47 46.50 194.66 49.45 C 199.53 52.64 205.62 52.34 210.95 54.25 C 213.81 55.14 215.09 58.05 216.90 60.15 C 220.50 64.90 226.38 67.21 232.03 68.35 C 235.12 68.13 238.29 66.39 239.94 63.72 C 240.36 61.84 240.33 59.91 240.50 58.00 C 244.63 57.82 246.21 62.30 248.86 64.69 C 251.82 64.41 254.80 64.33 257.77 64.39 C 257.83 66.44 257.80 68.48 257.82 70.53 C 249.86 68.85 241.95 72.21 234.00 72.58 C 231.33 72.76 228.37 72.33 226.16 74.17 C 222.93 76.62 218.68 76.04 214.98 77.12 C 214.91 77.48 214.78 78.20 214.72 78.56 C 218.11 77.91 221.49 78.33 224.37 80.33 C 224.53 79.26 224.70 78.19 224.89 77.13 C 226.59 78.92 228.10 80.95 230.16 82.37 C 233.09 82.54 235.30 79.75 238.20 79.36 C 241.13 78.97 243.26 76.93 245.24 74.93 C 247.79 75.30 249.56 77.22 251.36 78.88 C 255.27 77.83 259.25 76.86 263.34 77.36 C 262.18 75.53 261.02 73.70 260.02 71.78 C 265.08 75.43 268.90 80.70 274.47 83.65 C 277.41 84.43 279.94 86.08 282.66 87.34 C 288.45 88.37 293.50 84.41 298.71 82.53 C 303.55 79.78 309.34 81.98 314.43 80.24 C 317.63 78.66 320.27 76.13 323.55 74.67 C 330.09 71.77 337.18 70.52 344.07 68.76 C 348.70 68.74 352.50 72.28 357.10 72.77 C 361.17 73.82 365.11 71.86 369.10 71.31 C 371.73 70.89 374.16 72.37 376.76 72.48 C 385.58 68.18 393.76 62.59 401.07 56.02 C 403.87 53.38 407.88 52.41 410.39 49.42 C 412.75 46.78 415.16 44.16 417.92 41.92 C 421.88 38.66 426.77 36.86 430.96 33.94 C 433.18 32.27 436.09 32.60 438.63 31.80 C 444.26 30.21 448.76 26.19 454.23 24.22 C 461.09 21.67 467.71 18.04 475.13 17.42 C 483.04 16.85 489.57 11.74 497.21 10.16 C 505.30 8.38 513.01 5.27 520.97 3.00 C 523.17 2.50 525.08 1.29 526.90 0.00 Z" />
<path fill="#15b400" opacity="1.00" d=" M 243.15 37.18 C 244.14 37.28 245.14 37.37 246.14 37.46 C 246.24 38.21 246.46 39.72 246.57 40.48 C 247.39 40.57 249.02 40.77 249.84 40.87 C 249.48 43.35 246.38 43.67 244.59 44.84 C 244.52 43.43 245.06 42.13 245.64 40.87 C 244.64 39.76 243.33 38.77 243.15 37.18 Z" />
<path fill="#15b400" opacity="1.00" d=" M 243.06 46.63 C 244.73 46.45 246.41 46.49 248.08 46.48 C 247.39 49.37 244.27 50.39 242.03 51.85 C 242.33 50.16 241.69 47.93 243.06 46.63 Z" />
<path fill="#15b400" opacity="1.00" d=" M 255.58 53.65 C 257.93 52.92 260.40 53.31 262.81 53.25 C 262.28 54.88 261.60 56.46 260.77 57.96 C 258.93 57.57 257.14 57.00 255.38 56.35 C 255.46 55.45 255.53 54.55 255.58 53.65 Z" />
</g>
<g id="#ffffffff">
</g>
<g id="#13570aff">
<path fill="#13570a" opacity="1.00" d=" M 263.78 114.67 C 267.46 108.68 268.90 101.60 272.85 95.76 C 276.08 99.90 277.81 104.91 280.58 109.33 C 283.97 114.79 286.47 120.73 289.51 126.38 C 290.90 129.11 292.49 131.89 292.69 135.02 C 292.95 138.69 292.50 142.37 292.69 146.05 C 292.97 153.87 297.02 161.07 296.74 168.96 C 296.58 181.65 296.77 194.34 296.59 207.03 C 296.40 212.12 298.85 216.86 298.70 221.94 C 298.68 224.89 298.68 227.85 298.95 230.79 C 299.50 231.25 300.59 232.17 301.14 232.63 C 303.32 231.41 303.95 228.85 305.13 226.84 C 308.35 220.94 314.02 216.98 318.12 211.79 C 318.85 206.87 317.35 201.96 317.37 197.03 C 317.33 191.00 317.32 184.97 317.32 178.94 C 317.16 172.44 321.78 167.32 323.39 161.29 C 324.18 159.14 324.39 156.66 325.82 154.81 C 330.14 153.85 334.61 154.44 339.00 154.36 C 346.47 154.57 353.96 153.96 361.42 154.56 C 363.75 158.52 365.88 162.60 368.53 166.36 C 371.29 170.33 372.93 175.09 372.74 179.95 C 372.56 195.31 372.79 210.66 372.59 226.01 C 372.53 228.64 372.88 231.24 373.29 233.83 C 375.42 234.42 377.63 233.47 378.88 231.69 C 380.05 227.68 378.47 223.13 380.26 219.34 C 385.13 217.00 391.69 216.67 394.63 211.49 C 397.36 207.10 396.55 201.77 395.04 197.12 C 394.29 195.33 395.34 193.62 395.95 191.97 C 397.64 188.28 396.82 183.77 399.63 180.56 C 401.90 177.85 401.16 174.19 401.40 170.95 C 401.33 166.81 403.92 163.31 404.63 159.34 C 405.55 154.33 405.11 149.15 406.36 144.19 C 406.96 141.83 407.74 138.99 410.37 138.20 C 413.41 143.99 413.47 150.57 413.99 156.92 C 416.18 167.39 419.52 177.60 421.69 188.08 C 422.23 190.93 424.71 193.00 425.24 195.80 C 424.07 208.17 424.94 220.62 424.59 233.04 C 424.84 235.56 423.82 239.46 427.17 240.22 C 431.27 239.95 436.08 238.85 438.84 235.65 C 439.95 229.84 439.05 223.87 439.32 218.00 C 439.19 214.17 439.91 210.17 438.73 206.47 C 437.15 204.64 435.35 203.02 433.81 201.16 C 435.81 200.63 437.85 200.20 439.93 200.23 C 460.86 200.47 481.79 200.20 502.71 200.37 C 499.61 209.63 501.03 219.43 500.69 229.00 C 500.70 232.27 500.46 235.59 501.02 238.84 C 501.94 242.65 504.93 245.84 504.71 249.93 C 504.71 257.00 504.45 264.07 505.00 271.12 C 505.40 274.56 504.85 277.89 502.44 280.49 C 501.64 285.21 501.07 290.10 501.44 294.91 C 501.36 297.39 498.55 299.17 499.18 301.78 C 499.30 302.90 499.46 304.02 499.65 305.14 C 497.77 305.63 495.87 306.04 493.96 306.33 C 494.35 308.40 494.75 310.48 495.04 312.58 C 493.59 313.39 492.13 314.19 490.66 314.97 C 490.43 317.78 490.64 320.73 489.41 323.35 C 488.31 324.96 485.74 325.08 485.10 327.07 C 486.13 329.92 489.78 331.54 489.57 334.83 C 488.50 336.34 487.00 337.45 485.64 338.67 C 485.56 341.93 485.15 345.17 484.43 348.36 C 481.90 348.97 479.31 349.27 476.79 349.88 C 472.27 352.94 468.58 357.03 464.42 360.50 C 460.03 361.44 457.40 356.74 455.40 353.61 C 452.92 353.65 450.31 354.14 447.99 353.05 C 444.04 351.44 440.57 348.13 436.00 348.60 C 431.27 349.05 426.31 349.68 422.17 352.20 C 415.31 356.30 407.19 357.12 399.54 358.84 C 394.17 360.41 388.53 359.35 383.06 360.20 C 378.16 360.40 372.32 361.31 368.45 357.54 C 365.12 354.49 361.07 351.58 359.80 347.02 C 359.05 342.69 359.66 338.13 358.00 333.97 C 355.98 329.42 356.32 324.33 355.46 319.52 C 354.84 313.10 351.99 307.17 351.29 300.76 C 350.50 294.18 348.23 287.82 344.75 282.19 C 341.30 276.85 337.62 271.20 331.74 268.29 C 319.14 264.06 305.70 266.20 292.89 268.24 C 288.35 268.70 284.74 271.77 280.91 273.96 C 276.90 277.65 273.39 282.47 272.62 287.98 C 272.56 296.72 276.83 305.03 283.03 311.01 C 289.12 319.24 300.88 320.82 306.22 329.77 C 309.36 336.68 308.71 344.72 306.81 351.88 C 304.64 356.11 301.93 360.13 298.56 363.51 C 292.63 370.27 286.81 377.13 280.64 383.68 C 278.10 386.37 274.11 387.82 270.48 387.50 C 266.26 385.22 261.56 383.23 258.29 379.64 C 257.61 374.38 258.74 368.97 257.20 363.80 C 253.52 348.74 247.70 333.59 236.84 322.21 C 232.57 318.48 228.02 315.04 224.12 310.90 C 222.11 308.85 220.05 306.45 217.01 306.10 C 212.12 305.27 208.19 301.09 203.01 301.70 C 195.04 303.06 187.48 306.00 180.03 309.03 C 174.74 311.66 168.96 315.02 166.82 320.87 C 165.08 326.83 163.25 332.83 163.04 339.09 C 163.00 342.80 160.98 346.00 159.01 348.99 C 153.44 357.54 149.89 367.16 145.26 376.21 C 142.79 380.97 141.12 386.38 137.14 390.16 C 132.84 392.71 127.09 392.95 122.84 390.10 C 112.72 384.98 106.32 375.00 96.55 369.44 C 87.03 364.88 75.94 368.56 66.22 364.77 C 59.47 360.76 53.70 355.33 47.90 350.09 C 39.64 343.41 32.00 336.03 24.52 328.50 C 22.45 326.54 20.42 324.37 17.67 323.39 C 11.76 321.18 5.71 319.32 0.00 316.59 L 0.00 277.80 C 1.90 273.05 1.12 267.94 1.26 262.98 C 1.18 261.19 2.51 259.86 3.51 258.55 C 8.74 251.96 17.06 248.99 22.60 242.71 C 26.00 241.91 29.54 242.40 33.00 242.32 C 37.49 242.48 42.04 241.90 46.49 242.64 C 49.07 244.71 50.52 247.83 52.72 250.26 C 56.08 253.98 59.04 258.11 62.92 261.34 C 64.29 260.57 66.09 260.23 66.91 258.74 C 67.45 256.20 67.32 253.58 67.34 251.00 C 67.15 239.33 67.40 227.65 67.18 215.97 C 67.12 213.93 67.38 211.92 67.66 209.91 C 71.52 207.88 75.37 205.11 79.93 205.29 C 84.26 205.30 88.59 205.59 92.90 205.05 C 93.60 202.07 92.47 198.12 94.81 195.84 C 98.63 194.82 102.74 195.87 106.53 194.61 C 109.05 193.87 111.41 192.51 114.05 192.27 C 117.75 192.53 121.21 194.22 124.94 194.31 C 128.43 194.43 131.93 194.30 135.42 194.58 C 136.41 211.00 135.07 227.51 136.02 243.94 C 138.08 244.48 140.39 245.90 142.48 244.69 C 145.69 243.00 148.92 241.34 152.35 240.13 C 154.32 233.95 153.03 227.36 153.34 221.00 C 153.65 214.62 152.57 208.11 153.87 201.82 C 158.09 197.88 164.69 198.99 170.03 198.32 C 172.93 198.53 174.97 196.32 177.40 195.17 C 181.53 195.38 185.78 195.80 189.65 197.40 C 193.30 198.96 197.37 198.10 201.21 198.69 C 202.29 200.98 203.24 203.36 204.64 205.49 C 209.23 207.31 214.72 205.33 219.13 207.90 C 220.74 208.60 220.53 210.53 220.73 211.98 C 221.01 225.76 220.26 239.56 221.02 253.32 L 221.93 252.87 C 222.74 247.85 221.85 242.73 222.55 237.70 C 225.70 236.17 228.81 234.55 232.03 233.18 C 236.87 231.01 242.62 233.70 247.35 231.40 C 250.26 226.94 249.90 221.40 250.85 216.37 C 251.60 212.62 252.58 208.87 252.43 205.01 C 252.23 193.67 252.42 182.33 252.30 170.99 C 252.21 163.53 253.24 156.11 255.00 148.87 C 256.56 142.38 253.34 135.08 257.20 129.17 C 259.71 124.47 260.94 119.20 263.78 114.67 Z" />
<path fill="#13570a" opacity="1.00" d=" M 288.86 280.93 C 293.74 276.76 300.61 275.42 306.86 276.04 C 314.13 278.54 322.02 278.81 329.12 281.84 C 331.73 283.85 334.05 286.23 336.47 288.47 C 338.98 290.58 338.81 294.16 340.15 296.94 C 342.72 302.71 345.81 308.51 346.15 314.95 C 346.37 319.63 347.61 324.20 347.62 328.89 C 347.57 333.60 349.46 337.98 350.41 342.52 C 351.02 348.24 350.78 354.10 352.29 359.70 C 355.14 366.20 361.78 371.02 368.96 371.17 C 374.64 371.10 380.33 371.55 385.99 370.93 C 390.65 371.11 395.33 371.72 399.99 371.16 C 408.19 370.58 415.53 366.40 423.55 364.89 C 427.41 364.27 431.26 363.28 435.19 363.29 C 442.44 364.17 448.96 367.72 455.25 371.24 C 453.45 375.77 447.52 374.22 444.98 377.96 C 443.64 379.50 442.89 381.42 442.05 383.25 C 438.46 383.33 434.74 383.68 431.65 385.66 C 428.04 387.75 423.95 391.21 419.67 388.59 C 418.81 384.73 417.50 380.34 413.06 379.43 C 412.08 380.32 411.11 381.20 410.14 382.08 C 407.28 384.40 403.79 385.74 400.87 387.96 C 398.12 391.14 399.00 395.71 398.56 399.59 C 394.09 399.23 389.15 397.47 384.96 399.85 C 382.71 400.88 383.37 403.64 382.78 405.60 C 380.73 408.29 376.85 409.65 375.96 413.18 C 375.75 417.50 377.78 421.98 376.19 426.19 C 374.27 427.89 371.29 427.67 368.91 428.35 C 368.95 429.58 368.87 430.86 369.62 431.93 C 371.28 433.45 373.12 434.83 374.49 436.66 C 375.94 439.45 373.55 442.16 373.18 444.91 C 373.84 447.13 374.78 449.27 375.23 451.57 C 372.32 451.13 369.78 449.60 367.05 448.60 C 364.30 449.79 365.15 453.74 364.10 456.18 C 362.42 457.04 360.89 458.33 359.01 458.68 C 356.69 458.65 354.50 457.23 353.55 455.13 C 354.80 453.42 356.07 451.73 357.32 450.03 C 356.14 447.35 355.22 444.57 353.90 441.97 C 351.90 441.33 349.82 441.04 347.79 440.54 C 346.71 438.73 345.58 436.15 343.03 436.41 C 340.04 436.70 340.47 440.89 337.98 442.04 C 333.54 444.17 332.71 449.40 330.24 453.21 C 327.93 456.67 329.62 461.15 327.79 464.74 C 325.39 467.84 319.90 467.58 318.63 471.76 C 321.50 475.24 323.04 479.61 322.86 484.14 C 322.60 489.34 325.11 494.40 323.70 499.59 C 319.21 501.47 313.17 498.41 309.74 502.59 C 308.82 509.20 309.03 516.53 305.14 522.25 C 301.72 523.45 298.06 523.37 294.49 523.66 C 289.62 525.05 284.50 526.07 280.26 529.00 L 276.36 529.00 C 274.77 528.18 273.13 527.34 271.90 526.03 C 271.12 523.61 270.92 521.04 270.46 518.55 C 267.80 517.01 264.76 515.76 262.97 513.12 C 261.03 510.45 259.46 507.22 256.32 505.74 C 251.66 505.27 246.39 505.73 242.64 502.34 C 239.20 500.16 239.85 495.55 239.43 492.05 C 239.52 489.74 237.90 487.91 237.33 485.77 C 237.12 482.80 237.43 479.79 236.72 476.86 C 233.60 476.22 230.88 477.89 228.23 479.26 C 225.30 480.82 221.89 480.34 218.70 480.58 C 217.05 484.02 214.12 486.34 210.67 487.81 C 206.77 489.35 207.23 495.25 203.00 496.18 C 199.32 497.24 195.53 496.13 191.92 495.35 C 189.27 496.78 186.89 500.23 183.55 498.95 C 182.63 496.33 182.07 493.03 179.16 491.87 C 175.60 489.40 171.17 489.74 167.13 488.87 C 163.75 488.15 161.63 484.37 158.00 484.58 C 153.51 484.83 149.11 486.11 144.98 487.86 C 143.95 490.60 144.11 495.82 140.00 495.42 C 135.86 494.21 131.99 492.17 127.74 491.27 C 126.82 489.18 126.33 486.86 125.05 484.96 C 123.00 483.29 119.87 482.86 118.68 480.28 C 117.84 478.80 117.11 477.27 116.35 475.75 C 112.98 474.89 109.69 473.78 106.39 472.70 C 100.04 470.68 93.57 475.43 87.25 472.96 C 82.67 471.31 77.97 470.07 73.27 468.86 C 69.53 467.64 70.40 463.02 70.27 459.99 C 70.70 455.31 66.88 452.01 64.56 448.42 C 61.88 444.93 62.62 439.79 59.31 436.70 C 55.73 433.03 50.13 434.08 45.74 432.14 C 45.48 429.22 45.17 426.31 44.54 423.44 C 43.90 423.19 42.62 422.68 41.98 422.42 C 39.55 424.25 37.29 426.87 33.97 426.79 C 30.19 427.03 26.87 429.43 23.06 429.37 C 20.66 428.50 18.53 427.04 16.30 425.82 C 12.89 424.10 11.29 420.23 7.97 418.40 C 4.86 419.21 2.91 422.57 0.00 424.08 L 0.00 325.39 C 7.82 327.00 14.13 332.05 19.80 337.39 C 20.70 338.06 20.89 339.33 20.31 340.28 C 18.58 343.55 15.74 346.21 14.62 349.80 C 14.15 351.80 14.16 353.87 14.08 355.92 C 15.24 355.70 17.38 356.49 17.69 354.80 C 19.18 350.38 21.03 346.09 23.45 342.10 C 25.03 342.17 26.79 341.70 28.20 342.64 C 30.97 345.63 32.74 349.47 35.97 352.05 C 42.35 357.33 48.63 362.73 55.07 367.95 C 58.42 370.60 61.45 373.84 65.47 375.48 C 70.91 376.63 76.51 375.28 81.97 376.21 C 86.83 376.96 91.79 377.68 96.31 379.72 C 102.11 383.00 107.59 387.01 111.73 392.30 C 117.11 397.37 122.85 402.25 129.47 405.62 C 133.28 408.14 137.57 404.95 140.50 402.51 C 144.17 398.51 149.22 395.42 151.14 390.09 C 155.40 379.75 160.26 369.65 164.31 359.22 C 166.69 353.49 169.89 347.96 170.81 341.74 C 171.72 332.72 176.62 324.31 183.34 318.35 C 188.75 314.53 195.55 313.12 202.06 312.73 C 211.00 313.88 218.49 319.45 226.04 323.96 C 230.19 326.14 231.84 330.80 235.11 333.91 C 240.84 339.57 242.22 347.90 243.65 355.48 C 244.85 363.78 247.48 371.83 248.00 380.24 C 248.69 387.23 245.67 394.07 246.83 401.06 C 247.40 405.81 251.17 410.28 256.00 411.05 C 260.31 410.32 264.09 408.00 267.81 405.84 C 280.00 399.28 290.64 389.97 298.75 378.76 C 302.31 373.68 307.04 369.55 310.28 364.24 C 313.03 359.54 316.80 355.21 317.58 349.62 C 318.64 343.34 319.54 335.97 315.41 330.56 C 312.57 326.63 310.66 322.13 307.85 318.19 C 303.08 312.12 295.14 310.39 289.34 305.66 C 287.32 304.09 288.33 301.21 288.03 299.03 C 288.24 293.01 285.73 286.55 288.86 280.93 Z" />
</g>
</svg>
